<svg xmlns="http://www.w3.org/2000/svg" version="1.1" xmlns:xlink="http://www.w3.org/1999/xlink" xmlns:svgjs="http://svgjs.dev/svgjs" width="2000" height="1247" viewBox="0 0 2000 1247"><g transform="matrix(1,0,0,1,-1.2121212121212466,0.504858299595071)"><svg viewBox="0 0 396 247" data-background-color="#1b4571" preserveAspectRatio="xMidYMid meet" height="1247" width="2000" xmlns="http://www.w3.org/2000/svg" xmlns:xlink="http://www.w3.org/1999/xlink"><g id="tight-bounds" transform="matrix(1,0,0,1,0.2400000000000091,-0.09999999999999432)"><svg viewBox="0 0 395.52 247.2" height="247.2" width="395.52"><g><svg></svg></g><g><svg viewBox="0 0 395.52 247.2" height="247.2" width="395.52"><mask id="d42d24ec-7d40-4746-8d45-3c366957f931"><rect width="640" height="400" fill="white"></rect><g transform="matrix(1,0,0,1,39.55199999999999,103.12774799258801)"><svg viewBox="0 0 316.416 40.94450401482397" height="40.94450401482397" width="316.416"><g><svg viewBox="0 0 316.416 40.94450401482397" height="40.94450401482397" width="316.416"><g><svg viewBox="0 0 316.416 40.94450401482397" height="40.94450401482397" width="316.416"><g><svg viewBox="0 0 316.416 40.94450401482397" height="40.94450401482397" width="316.416"><g id="SvgjsG2490"><svg viewBox="0 0 316.416 40.94450401482397" height="40.94450401482397" width="316.416" id="SvgjsSvg2489"><g><svg viewBox="0 0 316.416 40.94450401482397" height="40.94450401482397" width="316.416"><g transform="matrix(1,0,0,1,0,0)"><svg width="316.416" viewBox="-1.4500000476837158 -38.54999923706055 324.7799987792969 42.89999771118164" height="40.94450401482397" data-palette-color="#ffffff"><path d="M23.65-24.85L23.65-24.85Q23.65-25.9 22.78-26.65 21.9-27.4 20.7-27.4L20.7-27.4Q18.3-27.4 16.75-24.68 15.2-21.95 15.2-18.5L15.2-18.5Q15.2-15.85 16.2-13.73 17.2-11.6 19.1-10.35 21-9.1 23.5-9.1L23.5-9.1Q25.35-9.1 27.05-9.83 28.75-10.55 29.8-11.43 30.85-12.3 31.98-13.03 33.1-13.75 33.95-13.75L33.95-13.75Q35.05-13.75 35.85-12.88 36.65-12 36.65-11.05L36.65-11.05Q36.65-10 36.02-8.6 35.4-7.2 34.05-5.63 32.7-4.05 30.9-2.73 29.1-1.4 26.43-0.53 23.75 0.35 20.8 0.35L20.8 0.35Q16.9 0.35 13.58-0.83 10.25-2 7.8-4.17 5.35-6.35 3.95-9.65 2.55-12.95 2.55-17.05L2.55-17.05Q2.55-25.15 7.4-29.85 12.25-34.55 20.1-34.55L20.1-34.55Q24.1-34.55 27.5-33.2 30.9-31.85 32.9-29.45 34.9-27.05 34.9-24.2L34.9-24.2Q34.9-20.9 32.7-18.23 30.5-15.55 27-15.55L27-15.55Q25-15.55 23.4-16.65 21.8-17.75 21.8-19.8L21.8-19.8Q21.8-20.75 22.73-22.45 23.65-24.15 23.65-24.85ZM59.25-7L59.25-7Q60.95-7 62.17-8.5 63.4-10 63.92-12.2 64.45-14.4 64.45-16.9L64.45-16.9Q64.45-19.45 63.9-21.73 63.35-24 62.12-25.6 60.9-27.2 59.25-27.2L59.25-27.2Q57.65-27.2 56.45-25.6 55.25-24 54.65-21.7 54.05-19.4 54.05-16.9L54.05-16.9Q54.05-14.4 54.62-12.2 55.2-10 56.42-8.5 57.65-7 59.25-7ZM68.1-1.68Q64.15 0.3 59.22 0.3 54.3 0.3 50.37-1.68 46.45-3.65 44.1-7.6 41.75-11.55 41.75-16.9L41.75-16.9Q41.75-25 46.62-29.78 51.5-34.55 59.25-34.55 67-34.55 71.9-29.78 76.8-25 76.8-16.9L76.8-16.9Q76.8-11.55 74.42-7.6 72.05-3.65 68.1-1.68ZM112.25-5.2L112.25-18.3 106-5.5Q105.2-3.9 104.3-3.23 103.4-2.55 102.15-2.55L102.15-2.55Q100.55-2.55 99.45-3.68 98.35-4.8 96.6-7.75L96.6-7.75 90.8-18.3 90.8-4.15Q90.8-2 89.82-1 88.85 0 86.9 0L86.9 0Q84.7 0 83.7-0.98 82.7-1.95 82.7-4.8L82.7-4.8 82.7-26.6Q82.7-30.45 84.45-32.4 86.2-34.35 90.35-34.35L90.35-34.35Q91.9-34.35 93.05-33.83 94.2-33.3 94.77-32.63 95.35-31.95 95.9-30.95L95.9-30.95 102.6-16.3 109.7-30.7Q111.55-34.3 116.35-34.3L116.35-34.3Q118.6-34.3 120.2-33.52 121.8-32.75 122.72-31.03 123.65-29.3 123.65-26.7L123.65-26.7 123.65-4.95Q123.6 0 117.4 0L117.4 0Q115.15 0 113.72-1.23 112.3-2.45 112.25-5.2L112.25-5.2ZM159.69-5.2L159.69-18.3 153.44-5.5Q152.64-3.9 151.74-3.23 150.84-2.55 149.59-2.55L149.59-2.55Q147.99-2.55 146.89-3.68 145.79-4.8 144.04-7.75L144.04-7.75 138.24-18.3 138.24-4.15Q138.24-2 137.27-1 136.29 0 134.34 0L134.34 0Q132.14 0 131.14-0.98 130.14-1.95 130.14-4.8L130.14-4.8 130.14-26.6Q130.14-30.45 131.89-32.4 133.64-34.35 137.79-34.35L137.79-34.35Q139.34-34.35 140.49-33.83 141.64-33.3 142.22-32.63 142.79-31.95 143.34-30.95L143.34-30.95 150.04-16.3 157.14-30.7Q158.99-34.3 163.79-34.3L163.79-34.3Q166.04-34.3 167.64-33.52 169.24-32.75 170.17-31.03 171.09-29.3 171.09-26.7L171.09-26.7 171.09-4.95Q171.04 0 164.84 0L164.84 0Q162.59 0 161.17-1.23 159.74-2.45 159.69-5.2L159.69-5.2ZM207.99-28.25L207.99-28.25 207.99-13.35Q207.99-6.05 204.47-2.88 200.94 0.3 192.59 0.3L192.59 0.3Q184.64 0.3 180.92-3.1 177.19-6.5 177.19-13.35L177.19-13.35 177.19-28.25Q177.19-30.9 178.77-32.58 180.34-34.25 182.74-34.25L182.74-34.25Q185.69-34.25 187.22-33.15 188.74-32.05 188.74-28.7L188.74-28.7 188.74-12.4Q188.79-10.8 189.27-9.85 189.74-8.9 190.54-8.53 191.34-8.15 192.59-8.15 193.84-8.15 194.64-8.45 195.44-8.75 195.82-9.4 196.19-10.05 196.32-10.7 196.44-11.35 196.44-12.4L196.44-12.4 196.44-28.75Q196.44-30.45 196.87-31.6 197.29-32.75 198.17-33.3 199.04-33.85 199.97-34.05 200.89-34.25 202.19-34.25L202.19-34.25Q205.09-34.25 206.54-32.85 207.99-31.45 207.99-28.25ZM246.44-29.95L246.44-4.75Q246.44-2.55 245.14-1.28 243.84 0 241.34 0L241.34 0Q240.69 0 240.04-0.15 239.39-0.3 238.66-0.7 237.94-1.1 237.39-1.45 236.84-1.8 236.01-2.53 235.19-3.25 234.71-3.68 234.24-4.1 233.24-5.05 232.24-6 231.79-6.45L231.79-6.45 222.64-15.1 222.64-4.25Q222.64-1.8 221.71-0.9 220.79 0 218.79 0L218.79 0Q216.59 0 215.54-1 214.49-2 214.49-4.35L214.49-4.35 214.49-28.5Q214.49-31.35 215.94-32.8 217.39-34.25 220.09-34.25L220.09-34.25Q221.94-34.25 223.06-33.68 224.19-33.1 225.74-31.6L225.74-31.6 238.39-19 238.39-29.9Q238.39-32.05 239.46-33.13 240.54-34.2 242.39-34.2L242.39-34.2Q244.54-34.2 245.49-33.2 246.44-32.2 246.44-29.95L246.44-29.95ZM264.74-20.3L273.34-20.3Q275.99-20.3 277.06-19.45 278.14-18.6 278.14-16.55L278.14-16.55Q278.14-14.85 276.86-14.13 275.59-13.4 272.89-13.4L272.89-13.4 264.79-13.4 264.79-8.1 275.64-8.05Q278.44-8.05 279.66-7.23 280.89-6.4 280.89-4.3L280.89-4.3Q280.89-1.9 279.46-0.95 278.04 0 275.14 0L275.14 0 258.94 0Q255.99 0 254.61-1.58 253.24-3.15 253.24-7.15L253.24-7.15 253.24-28.25Q253.24-34.25 258.94-34.25L258.94-34.25 275.14-34.25Q278.04-34.25 279.46-33.35 280.89-32.45 280.89-30.1L280.89-30.1Q280.89-27.9 279.66-27.03 278.44-26.15 275.64-26.15L275.64-26.15 264.74-26.15 264.74-20.3ZM289.03-11.05L295.03-17 288.18-23.65Q286.13-25.85 286.13-27.85L286.13-27.85Q286.13-30.3 288.23-32.2L288.23-32.2Q290.53-34.25 292.33-34.25L292.33-34.25Q294.53-34.25 296.18-32.3L296.18-32.3 302.58-24.1 307.88-31.2Q310.33-34.2 313.38-34.2L313.38-34.2Q315.48-34.2 317.28-32.45L317.28-32.45Q319.33-30.35 319.33-28.45L319.33-28.45Q319.33-26.25 316.38-23.2L316.38-23.2 310.48-17.6 317.23-10.55Q319.33-8.2 319.33-6.4L319.33-6.4Q319.33-3.9 317.23-2.05L317.23-2.05Q314.93 0.05 313.13 0.05L313.13 0.05Q310.88 0.05 309.28-1.9L309.28-1.9 302.83-10.3 297.53-3.05Q295.18 0 292.08 0L292.08 0Q290.03 0 288.18-1.85L288.18-1.85Q286.13-3.9 286.13-5.8L286.13-5.8Q286.13-7.85 289.03-11.05L289.03-11.05Z" opacity="1" transform="matrix(1,0,0,1,0,0)" fill="black" class="wordmark-text-0" id="SvgjsPath2488" stroke-width="7" stroke="black" stroke-linejoin="round"></path></svg></g></svg></g></svg></g></svg></g><g></g></svg></g></svg></g></svg></g></mask><g transform="matrix(1,0,0,1,39.55199999999999,103.12774799258801)"><svg viewBox="0 0 316.416 40.94450401482397" height="40.94450401482397" width="316.416"><g><svg viewBox="0 0 316.416 40.94450401482397" height="40.94450401482397" width="316.416"><g><svg viewBox="0 0 316.416 40.94450401482397" height="40.94450401482397" width="316.416"><g><svg viewBox="0 0 316.416 40.94450401482397" height="40.94450401482397" width="316.416"><g id="textblocktransform"><svg viewBox="0 0 316.416 40.94450401482397" height="40.94450401482397" width="316.416" id="textblock"><g><svg viewBox="0 0 316.416 40.94450401482397" height="40.94450401482397" width="316.416"><g transform="matrix(1,0,0,1,0,0)"><svg width="316.416" viewBox="-1.4500000476837158 -38.54999923706055 324.7799987792969 42.89999771118164" height="40.94450401482397" data-palette-color="#ffffff"><path d="M23.65-24.85L23.65-24.85Q23.65-25.9 22.78-26.65 21.9-27.4 20.7-27.4L20.7-27.4Q18.3-27.4 16.75-24.68 15.2-21.95 15.2-18.5L15.2-18.5Q15.2-15.85 16.2-13.73 17.2-11.6 19.1-10.35 21-9.1 23.5-9.1L23.5-9.1Q25.35-9.1 27.05-9.83 28.75-10.55 29.8-11.43 30.85-12.3 31.98-13.03 33.1-13.75 33.95-13.75L33.95-13.75Q35.05-13.75 35.85-12.88 36.65-12 36.65-11.05L36.65-11.05Q36.65-10 36.02-8.6 35.4-7.2 34.05-5.63 32.7-4.05 30.9-2.73 29.1-1.4 26.43-0.53 23.75 0.35 20.8 0.35L20.8 0.35Q16.9 0.35 13.58-0.83 10.25-2 7.8-4.17 5.35-6.35 3.95-9.65 2.55-12.95 2.55-17.05L2.55-17.05Q2.55-25.15 7.4-29.85 12.25-34.55 20.1-34.55L20.1-34.55Q24.1-34.55 27.5-33.2 30.9-31.85 32.9-29.45 34.9-27.05 34.9-24.2L34.9-24.2Q34.9-20.9 32.7-18.23 30.5-15.55 27-15.55L27-15.55Q25-15.55 23.4-16.65 21.8-17.75 21.8-19.8L21.8-19.8Q21.8-20.75 22.73-22.45 23.65-24.15 23.65-24.85ZM59.25-7L59.25-7Q60.95-7 62.17-8.5 63.4-10 63.92-12.2 64.45-14.4 64.45-16.9L64.45-16.9Q64.45-19.45 63.9-21.73 63.35-24 62.12-25.6 60.9-27.2 59.25-27.2L59.25-27.2Q57.65-27.2 56.45-25.6 55.25-24 54.65-21.7 54.05-19.4 54.05-16.9L54.05-16.9Q54.05-14.4 54.62-12.2 55.2-10 56.42-8.5 57.65-7 59.25-7ZM68.1-1.68Q64.15 0.3 59.22 0.3 54.3 0.3 50.37-1.68 46.45-3.65 44.1-7.6 41.75-11.55 41.75-16.9L41.75-16.9Q41.75-25 46.62-29.78 51.5-34.55 59.25-34.55 67-34.55 71.9-29.78 76.8-25 76.8-16.9L76.8-16.9Q76.8-11.55 74.42-7.6 72.05-3.65 68.1-1.68ZM112.25-5.2L112.25-18.3 106-5.5Q105.2-3.9 104.3-3.23 103.4-2.55 102.15-2.55L102.15-2.55Q100.55-2.55 99.45-3.68 98.35-4.8 96.6-7.75L96.6-7.75 90.8-18.3 90.8-4.15Q90.8-2 89.82-1 88.85 0 86.9 0L86.9 0Q84.7 0 83.7-0.98 82.7-1.95 82.7-4.8L82.7-4.8 82.7-26.6Q82.7-30.45 84.45-32.4 86.2-34.35 90.35-34.35L90.35-34.35Q91.9-34.35 93.05-33.83 94.2-33.3 94.77-32.63 95.35-31.95 95.9-30.95L95.9-30.95 102.6-16.3 109.7-30.7Q111.55-34.3 116.35-34.3L116.35-34.3Q118.6-34.3 120.2-33.52 121.8-32.75 122.72-31.03 123.65-29.3 123.65-26.7L123.65-26.7 123.65-4.95Q123.6 0 117.4 0L117.4 0Q115.15 0 113.72-1.23 112.3-2.45 112.25-5.2L112.25-5.2ZM159.69-5.2L159.69-18.3 153.44-5.5Q152.64-3.9 151.74-3.23 150.84-2.55 149.59-2.55L149.59-2.55Q147.99-2.55 146.89-3.68 145.79-4.8 144.04-7.75L144.04-7.75 138.24-18.3 138.24-4.15Q138.24-2 137.27-1 136.29 0 134.34 0L134.34 0Q132.14 0 131.14-0.98 130.14-1.95 130.14-4.8L130.14-4.8 130.14-26.6Q130.14-30.45 131.89-32.4 133.64-34.35 137.79-34.35L137.79-34.35Q139.34-34.35 140.49-33.83 141.64-33.3 142.22-32.63 142.79-31.95 143.34-30.95L143.34-30.95 150.04-16.3 157.14-30.7Q158.99-34.3 163.79-34.3L163.79-34.3Q166.04-34.3 167.64-33.52 169.24-32.75 170.17-31.03 171.09-29.3 171.09-26.7L171.09-26.7 171.09-4.95Q171.04 0 164.84 0L164.84 0Q162.59 0 161.17-1.23 159.74-2.45 159.69-5.2L159.69-5.2ZM207.99-28.25L207.99-28.25 207.99-13.35Q207.99-6.05 204.47-2.88 200.94 0.3 192.59 0.3L192.59 0.3Q184.64 0.3 180.92-3.1 177.19-6.5 177.19-13.35L177.19-13.35 177.19-28.25Q177.19-30.9 178.77-32.58 180.34-34.25 182.74-34.25L182.74-34.25Q185.69-34.25 187.22-33.15 188.74-32.05 188.74-28.7L188.74-28.7 188.74-12.4Q188.79-10.8 189.27-9.85 189.74-8.9 190.54-8.53 191.34-8.15 192.59-8.15 193.84-8.15 194.64-8.45 195.44-8.75 195.82-9.4 196.19-10.05 196.32-10.7 196.44-11.35 196.44-12.4L196.44-12.4 196.44-28.75Q196.44-30.45 196.87-31.6 197.29-32.75 198.17-33.3 199.04-33.85 199.97-34.05 200.89-34.25 202.19-34.25L202.19-34.25Q205.09-34.25 206.54-32.85 207.99-31.45 207.99-28.25ZM246.44-29.95L246.44-4.75Q246.44-2.55 245.14-1.28 243.84 0 241.34 0L241.34 0Q240.69 0 240.04-0.15 239.39-0.3 238.66-0.7 237.94-1.1 237.39-1.45 236.84-1.8 236.01-2.53 235.19-3.25 234.71-3.68 234.24-4.1 233.24-5.05 232.24-6 231.79-6.45L231.79-6.45 222.64-15.1 222.64-4.25Q222.64-1.8 221.71-0.9 220.79 0 218.79 0L218.79 0Q216.59 0 215.54-1 214.49-2 214.49-4.35L214.49-4.35 214.49-28.5Q214.49-31.35 215.94-32.8 217.39-34.25 220.09-34.25L220.09-34.25Q221.94-34.25 223.06-33.68 224.19-33.1 225.74-31.6L225.74-31.6 238.39-19 238.39-29.9Q238.39-32.05 239.46-33.13 240.54-34.2 242.39-34.2L242.39-34.2Q244.54-34.2 245.49-33.2 246.44-32.2 246.44-29.95L246.44-29.95ZM264.74-20.3L273.34-20.3Q275.99-20.3 277.06-19.45 278.14-18.6 278.14-16.55L278.14-16.55Q278.14-14.85 276.86-14.13 275.59-13.4 272.89-13.4L272.89-13.4 264.79-13.4 264.79-8.1 275.64-8.05Q278.44-8.05 279.66-7.23 280.89-6.4 280.89-4.3L280.89-4.3Q280.89-1.9 279.46-0.95 278.04 0 275.14 0L275.14 0 258.94 0Q255.99 0 254.61-1.58 253.24-3.15 253.24-7.15L253.24-7.15 253.24-28.25Q253.24-34.25 258.94-34.25L258.94-34.25 275.14-34.25Q278.04-34.25 279.46-33.35 280.89-32.45 280.89-30.1L280.89-30.1Q280.89-27.9 279.66-27.03 278.44-26.15 275.64-26.15L275.64-26.15 264.74-26.15 264.74-20.3ZM289.03-11.05L295.03-17 288.18-23.65Q286.13-25.85 286.13-27.85L286.13-27.85Q286.13-30.3 288.23-32.2L288.23-32.2Q290.53-34.25 292.33-34.25L292.33-34.25Q294.53-34.25 296.18-32.3L296.18-32.3 302.58-24.1 307.88-31.2Q310.33-34.2 313.38-34.2L313.38-34.2Q315.48-34.2 317.28-32.45L317.28-32.45Q319.33-30.35 319.33-28.45L319.33-28.45Q319.33-26.25 316.38-23.2L316.38-23.2 310.48-17.6 317.23-10.55Q319.33-8.2 319.33-6.4L319.33-6.4Q319.33-3.9 317.23-2.05L317.23-2.05Q314.93 0.05 313.13 0.05L313.13 0.05Q310.88 0.05 309.28-1.9L309.28-1.9 302.83-10.3 297.53-3.05Q295.18 0 292.08 0L292.08 0Q290.03 0 288.18-1.85L288.18-1.85Q286.13-3.9 286.13-5.8L286.13-5.8Q286.13-7.85 289.03-11.05L289.03-11.05Z" opacity="1" transform="matrix(1,0,0,1,0,0)" fill="#ffffff" class="wordmark-text-0" data-fill-palette-color="primary" id="text-0"></path></svg></g></svg></g></svg></g></svg></g><g></g></svg></g></svg></g></svg></g><g mask="url(#d42d24ec-7d40-4746-8d45-3c366957f931)"><g transform="matrix(2.791883824304849, 0, 0, 2.791883824304849, 60.91581605572847, 1)"><svg xmlns="http://www.w3.org/2000/svg" xmlns:xlink="http://www.w3.org/1999/xlink" version="1.1" x="0" y="0" viewBox="0.9850000143051147 6.086999893188477 98.02999877929688 87.82600402832031" enable-background="new 0 0 100 100" xml:space="preserve" height="87.82600402832031" width="98.02999877929688" class="icon-none" data-fill-palette-color="accent" id="none"><path d="M50 6.087C22.93 6.087 0.985 25.748 0.985 50 0.985 74.253 22.93 93.913 50 93.913c27.07 0 49.015-19.66 49.015-43.913C99.015 25.748 77.07 6.087 50 6.087zM74.833 69.08c-32.125 19.166-60.851-0.667-66.379-6.454 14.492 11.331 37.288 14.851 56.379 6.787C76.146 64.037 82.172 56.755 85 47.079c2.829-10.751-0.536-20.965-11.143-27.954-9.899-6.451-22.628-8.601-35.355-5.376-9.899 3.226-17.678 9.139-20.506 17.74-3.535 9.139 2.829 18.277 13.435 23.115 10.606 3.763 25.456 2.15 31.113-6.45 3.535-5.914 2.121-13.44-5.657-17.203-3.535-1.613-8.303-1.955-10.86 0.174-3.521 2.932 1.89 0.361 5.874 2.206 2.517 1.165 5.6 3.165 4.986 8.372-0.772 6.559-11.313 9.677-18.385 7.526-7.778-2.688-11.314-8.601-10.606-14.515 1.414-6.451 7.778-11.289 15.557-12.902 13.435-2.688 25.455 4.301 29.698 13.978 3.535 9.138-2.121 17.739-12.021 23.115-8.484 4.301-18.385 5.376-27.577 2.688-13.435-3.763-22.627-12.901-23.334-24.19C9.511 22.888 22.238 12.137 39.916 8.374c19.799-3.225 39.598 4.301 48.083 18.277C95.777 41.166 91.609 59.071 74.833 69.08z" fill="#ffffff" data-fill-palette-color="accent"></path></svg></g></g></svg></g><defs></defs></svg><rect width="395.52" height="247.2" fill="none" stroke="none" visibility="hidden"></rect></g></svg></g></svg>